<svg xmlns="http://www.w3.org/2000/svg" xmlns:xlink="http://www.w3.org/1999/xlink" width="375" viewBox="0 0 375 375" height="375" version="1.0"><defs><clipPath id="b"><path d="M 128.921875 89.5625 L 245.921875 89.5625 L 245.921875 206.5625 L 128.921875 206.5625 Z M 128.921875 89.5625"/></clipPath><clipPath id="c"><path d="M 160.398438 89.5625 L 214.449219 89.5625 C 215.480469 89.5625 216.507812 89.613281 217.53125 89.714844 C 218.558594 89.816406 219.578125 89.964844 220.589844 90.167969 C 221.597656 90.367188 222.597656 90.617188 223.585938 90.917969 C 224.570312 91.21875 225.539062 91.5625 226.492188 91.957031 C 227.445312 92.351562 228.375 92.792969 229.285156 93.28125 C 230.195312 93.765625 231.078125 94.292969 231.933594 94.867188 C 232.792969 95.441406 233.617188 96.054688 234.414062 96.707031 C 235.210938 97.363281 235.976562 98.054688 236.703125 98.78125 C 237.433594 99.511719 238.125 100.273438 238.777344 101.070312 C 239.433594 101.867188 240.046875 102.695312 240.617188 103.550781 C 241.191406 104.410156 241.722656 105.292969 242.207031 106.199219 C 242.691406 107.109375 243.132812 108.039062 243.527344 108.992188 C 243.921875 109.945312 244.269531 110.914062 244.570312 111.902344 C 244.867188 112.886719 245.117188 113.886719 245.320312 114.898438 C 245.519531 115.910156 245.671875 116.925781 245.773438 117.953125 C 245.875 118.980469 245.921875 120.007812 245.921875 121.039062 L 245.921875 175.085938 C 245.921875 176.117188 245.875 177.144531 245.773438 178.171875 C 245.671875 179.199219 245.519531 180.214844 245.320312 181.226562 C 245.117188 182.238281 244.867188 183.238281 244.570312 184.222656 C 244.269531 185.210938 243.921875 186.179688 243.527344 187.132812 C 243.132812 188.085938 242.691406 189.015625 242.207031 189.925781 C 241.722656 190.832031 241.191406 191.714844 240.617188 192.574219 C 240.046875 193.429688 239.433594 194.257812 238.777344 195.054688 C 238.125 195.851562 237.433594 196.613281 236.703125 197.34375 C 235.976562 198.074219 235.210938 198.765625 234.414062 199.417969 C 233.617188 200.070312 232.792969 200.683594 231.933594 201.257812 C 231.078125 201.832031 230.195312 202.359375 229.285156 202.847656 C 228.375 203.332031 227.445312 203.773438 226.492188 204.167969 C 225.539062 204.5625 224.570312 204.90625 223.585938 205.207031 C 222.597656 205.507812 221.597656 205.757812 220.589844 205.957031 C 219.578125 206.160156 218.558594 206.308594 217.53125 206.410156 C 216.507812 206.511719 215.480469 206.5625 214.449219 206.5625 L 160.398438 206.5625 C 159.367188 206.5625 158.339844 206.511719 157.316406 206.410156 C 156.289062 206.308594 155.269531 206.160156 154.257812 205.957031 C 153.246094 205.757812 152.25 205.507812 151.261719 205.207031 C 150.277344 204.90625 149.308594 204.5625 148.355469 204.167969 C 147.402344 203.773438 146.472656 203.332031 145.5625 202.847656 C 144.652344 202.359375 143.769531 201.832031 142.914062 201.257812 C 142.054688 200.683594 141.226562 200.070312 140.429688 199.417969 C 139.632812 198.765625 138.871094 198.074219 138.144531 197.34375 C 137.414062 196.613281 136.722656 195.851562 136.070312 195.054688 C 135.414062 194.257812 134.800781 193.429688 134.226562 192.574219 C 133.65625 191.714844 133.125 190.832031 132.640625 189.925781 C 132.15625 189.015625 131.714844 188.085938 131.320312 187.132812 C 130.925781 186.179688 130.578125 185.210938 130.277344 184.222656 C 129.980469 183.238281 129.730469 182.238281 129.527344 181.226562 C 129.328125 180.214844 129.175781 179.199219 129.074219 178.171875 C 128.972656 177.144531 128.921875 176.117188 128.921875 175.085938 L 128.921875 121.039062 C 128.921875 120.007812 128.972656 118.980469 129.074219 117.953125 C 129.175781 116.925781 129.328125 115.910156 129.527344 114.898438 C 129.730469 113.886719 129.980469 112.886719 130.277344 111.902344 C 130.578125 110.914062 130.925781 109.945312 131.320312 108.992188 C 131.714844 108.039062 132.15625 107.109375 132.640625 106.199219 C 133.125 105.292969 133.65625 104.410156 134.226562 103.550781 C 134.800781 102.695312 135.414062 101.867188 136.070312 101.070312 C 136.722656 100.273438 137.414062 99.511719 138.144531 98.78125 C 138.871094 98.054688 139.632812 97.363281 140.429688 96.707031 C 141.226562 96.054688 142.054688 95.441406 142.914062 94.867188 C 143.769531 94.292969 144.652344 93.765625 145.5625 93.28125 C 146.472656 92.792969 147.402344 92.351562 148.355469 91.957031 C 149.308594 91.5625 150.277344 91.21875 151.261719 90.917969 C 152.25 90.617188 153.246094 90.367188 154.257812 90.167969 C 155.269531 89.964844 156.289062 89.816406 157.316406 89.714844 C 158.339844 89.613281 159.367188 89.5625 160.398438 89.5625 Z M 160.398438 89.5625"/></clipPath><clipPath id="d"><path d="M 149.226562 113.394531 L 169 113.394531 L 169 183.144531 L 149.226562 183.144531 Z M 149.226562 113.394531"/></clipPath><clipPath id="e"><path d="M 168 113.394531 L 188 113.394531 L 188 183.144531 L 168 183.144531 Z M 168 113.394531"/></clipPath><clipPath id="f"><path d="M 187 113.394531 L 207 113.394531 L 207 183.144531 L 187 183.144531 Z M 187 113.394531"/></clipPath><clipPath id="g"><path d="M 206 113.394531 L 225.726562 113.394531 L 225.726562 183.144531 L 206 183.144531 Z M 206 113.394531"/></clipPath><clipPath id="j"><path d="M 18.921875 43.921875 L 134.421875 43.921875 L 134.421875 110.671875 L 18.921875 110.671875 Z M 18.921875 43.921875"/></clipPath><clipPath id="i"><path d="M0 0H157V157H0z"/></clipPath><filter x="0%" y="0%" width="100%" xmlns:xlink="http://www.w3.org/1999/xlink" xlink:type="simple" xlink:actuate="onLoad" height="100%" id="a" xlink:show="other"><feColorMatrix values="0 0 0 0 1 0 0 0 0 1 0 0 0 0 1 0 0 0 1 0" color-interpolation-filters="sRGB"/></filter><mask id="h"><g filter="url(#a)"><path fill-opacity=".329" d="M-37.5 -37.5H412.5V412.5H-37.5z"/></g></mask></defs><path fill="#FFF" d="M-37.5 -37.5H412.5V412.5H-37.5z"/><path fill="#FFF" d="M-37.5 -37.5H412.5V412.5H-37.5z"/><path fill="#FFF" d="M-37.5 -37.5H412.5V412.5H-37.5z"/><g fill="#352359"><g><g><path d="M 14.25 0 L 0.828125 -41.625 L 10.015625 -41.625 L 16.21875 -21.65625 L 19.5 -8.59375 L 19.6875 -8.59375 L 22.84375 -21.65625 L 29.046875 -41.625 L 37.9375 -41.625 L 24.390625 0 Z M 14.25 0" transform="translate(57.91 266.152)"/></g></g></g><g fill="#352359"><g><g><path d="M 16.8125 0.71875 C 14.507812 0.71875 12.453125 0.34375 10.640625 -0.40625 C 8.835938 -1.164062 7.304688 -2.257812 6.046875 -3.6875 C 4.796875 -5.125 3.832031 -6.851562 3.15625 -8.875 C 2.476562 -10.90625 2.140625 -13.175781 2.140625 -15.6875 C 2.140625 -18.1875 2.476562 -20.453125 3.15625 -22.484375 C 3.832031 -24.515625 4.796875 -26.234375 6.046875 -27.640625 C 7.304688 -29.054688 8.835938 -30.140625 10.640625 -30.890625 C 12.453125 -31.648438 14.507812 -32.03125 16.8125 -32.03125 C 19.125 -32.03125 21.179688 -31.648438 22.984375 -30.890625 C 24.796875 -30.140625 26.328125 -29.054688 27.578125 -27.640625 C 28.835938 -26.234375 29.800781 -24.515625 30.46875 -22.484375 C 31.144531 -20.453125 31.484375 -18.1875 31.484375 -15.6875 C 31.484375 -13.175781 31.144531 -10.90625 30.46875 -8.875 C 29.800781 -6.851562 28.835938 -5.125 27.578125 -3.6875 C 26.328125 -2.257812 24.796875 -1.164062 22.984375 -0.40625 C 21.179688 0.34375 19.125 0.71875 16.8125 0.71875 Z M 16.8125 -6.265625 C 18.5625 -6.265625 19.914062 -6.800781 20.875 -7.875 C 21.832031 -8.945312 22.3125 -10.476562 22.3125 -12.46875 L 22.3125 -18.84375 C 22.3125 -20.832031 21.832031 -22.363281 20.875 -23.4375 C 19.914062 -24.507812 18.5625 -25.046875 16.8125 -25.046875 C 15.0625 -25.046875 13.707031 -24.507812 12.75 -23.4375 C 11.800781 -22.363281 11.328125 -20.832031 11.328125 -18.84375 L 11.328125 -12.46875 C 11.328125 -10.476562 11.800781 -8.945312 12.75 -7.875 C 13.707031 -6.800781 15.0625 -6.265625 16.8125 -6.265625 Z M 16.8125 -6.265625" transform="translate(96.671 266.152)"/></g></g></g><g fill="#352359"><g><g><path d="M 8.53125 -34.65625 C 6.738281 -34.65625 5.4375 -35.0625 4.625 -35.875 C 3.8125 -36.6875 3.40625 -37.726562 3.40625 -39 L 3.40625 -40.3125 C 3.40625 -41.582031 3.8125 -42.625 4.625 -43.4375 C 5.4375 -44.257812 6.738281 -44.671875 8.53125 -44.671875 C 10.320312 -44.671875 11.625 -44.257812 12.4375 -43.4375 C 13.25 -42.625 13.65625 -41.582031 13.65625 -40.3125 L 13.65625 -39 C 13.65625 -37.726562 13.25 -36.6875 12.4375 -35.875 C 11.625 -35.0625 10.320312 -34.65625 8.53125 -34.65625 Z M 4.109375 -31.3125 L 12.9375 -31.3125 L 12.9375 0 L 4.109375 0 Z M 4.109375 -31.3125" transform="translate(130.304 266.152)"/></g></g></g><g fill="#352359"><g><g><path d="M 16.765625 0.71875 C 14.410156 0.71875 12.316406 0.332031 10.484375 -0.4375 C 8.660156 -1.21875 7.132812 -2.3125 5.90625 -3.71875 C 4.675781 -5.132812 3.738281 -6.851562 3.09375 -8.875 C 2.457031 -10.90625 2.140625 -13.175781 2.140625 -15.6875 C 2.140625 -18.1875 2.457031 -20.441406 3.09375 -22.453125 C 3.738281 -24.460938 4.675781 -26.179688 5.90625 -27.609375 C 7.132812 -29.046875 8.660156 -30.140625 10.484375 -30.890625 C 12.316406 -31.648438 14.410156 -32.03125 16.765625 -32.03125 C 19.941406 -32.03125 22.59375 -31.3125 24.71875 -29.875 C 26.84375 -28.445312 28.363281 -26.441406 29.28125 -23.859375 L 22.125 -20.75 C 21.84375 -21.945312 21.265625 -22.960938 20.390625 -23.796875 C 19.515625 -24.628906 18.304688 -25.046875 16.765625 -25.046875 C 14.972656 -25.046875 13.617188 -24.457031 12.703125 -23.28125 C 11.785156 -22.113281 11.328125 -20.535156 11.328125 -18.546875 L 11.328125 -12.703125 C 11.328125 -10.710938 11.785156 -9.140625 12.703125 -7.984375 C 13.617188 -6.835938 14.972656 -6.265625 16.765625 -6.265625 C 18.347656 -6.265625 19.609375 -6.691406 20.546875 -7.546875 C 21.484375 -8.398438 22.171875 -9.523438 22.609375 -10.921875 L 29.46875 -7.9375 C 28.425781 -4.945312 26.820312 -2.753906 24.65625 -1.359375 C 22.488281 0.0234375 19.859375 0.71875 16.765625 0.71875 Z M 16.765625 0.71875" transform="translate(147.36 266.152)"/></g></g></g><g fill="#352359"><g><g><path d="M 17.171875 0.71875 C 14.785156 0.71875 12.65625 0.332031 10.78125 -0.4375 C 8.914062 -1.21875 7.335938 -2.3125 6.046875 -3.71875 C 4.753906 -5.132812 3.78125 -6.851562 3.125 -8.875 C 2.46875 -10.90625 2.140625 -13.175781 2.140625 -15.6875 C 2.140625 -18.15625 2.457031 -20.390625 3.09375 -22.390625 C 3.738281 -24.398438 4.6875 -26.117188 5.9375 -27.546875 C 7.1875 -28.984375 8.722656 -30.085938 10.546875 -30.859375 C 12.378906 -31.640625 14.46875 -32.03125 16.8125 -32.03125 C 19.394531 -32.03125 21.609375 -31.59375 23.453125 -30.71875 C 25.304688 -29.84375 26.820312 -28.664062 28 -27.1875 C 29.175781 -25.71875 30.03125 -24.019531 30.5625 -22.09375 C 31.101562 -20.164062 31.375 -18.148438 31.375 -16.046875 L 31.375 -13.421875 L 11.265625 -13.421875 L 11.265625 -12.9375 C 11.265625 -10.875 11.820312 -9.234375 12.9375 -8.015625 C 14.050781 -6.804688 15.800781 -6.203125 18.1875 -6.203125 C 20.019531 -6.203125 21.507812 -6.566406 22.65625 -7.296875 C 23.8125 -8.035156 24.890625 -8.921875 25.890625 -9.953125 L 30.296875 -4.46875 C 28.898438 -2.84375 27.078125 -1.570312 24.828125 -0.65625 C 22.585938 0.257812 20.035156 0.71875 17.171875 0.71875 Z M 17 -25.53125 C 15.207031 -25.53125 13.800781 -24.941406 12.78125 -23.765625 C 11.769531 -22.585938 11.265625 -21.023438 11.265625 -19.078125 L 11.265625 -18.609375 L 22.25 -18.609375 L 22.25 -19.140625 C 22.25 -21.046875 21.820312 -22.585938 20.96875 -23.765625 C 20.113281 -24.941406 18.789062 -25.53125 17 -25.53125 Z M 17 -25.53125" transform="translate(178.19 266.152)"/></g></g></g><g fill="#352359"><g><g><path d="M 4.59375 -41.625 L 24.8125 -41.625 C 28.269531 -41.625 30.960938 -40.648438 32.890625 -38.703125 C 34.816406 -36.753906 35.78125 -34.171875 35.78125 -30.953125 C 35.78125 -29.359375 35.570312 -28.003906 35.15625 -26.890625 C 34.738281 -25.785156 34.179688 -24.875 33.484375 -24.15625 C 32.785156 -23.4375 31.96875 -22.90625 31.03125 -22.5625 C 30.101562 -22.226562 29.101562 -22.039062 28.03125 -22 L 28.03125 -21.65625 C 29.019531 -21.65625 30.0625 -21.472656 31.15625 -21.109375 C 32.25 -20.753906 33.253906 -20.1875 34.171875 -19.40625 C 35.085938 -18.632812 35.851562 -17.628906 36.46875 -16.390625 C 37.082031 -15.160156 37.390625 -13.65625 37.390625 -11.875 C 37.390625 -10.238281 37.117188 -8.691406 36.578125 -7.234375 C 36.046875 -5.785156 35.300781 -4.523438 34.34375 -3.453125 C 33.394531 -2.378906 32.265625 -1.535156 30.953125 -0.921875 C 29.640625 -0.304688 28.207031 0 26.65625 0 L 4.59375 0 Z M 13.65625 -7.640625 L 24.09375 -7.640625 C 25.289062 -7.640625 26.234375 -7.96875 26.921875 -8.625 C 27.617188 -9.28125 27.96875 -10.203125 27.96875 -11.390625 L 27.96875 -13.421875 C 27.96875 -14.609375 27.617188 -15.53125 26.921875 -16.1875 C 26.234375 -16.84375 25.289062 -17.171875 24.09375 -17.171875 L 13.65625 -17.171875 Z M 13.65625 -24.578125 L 22.65625 -24.578125 C 23.851562 -24.578125 24.789062 -24.910156 25.46875 -25.578125 C 26.144531 -26.253906 26.484375 -27.191406 26.484375 -28.390625 L 26.484375 -30.171875 C 26.484375 -31.367188 26.144531 -32.304688 25.46875 -32.984375 C 24.789062 -33.660156 23.851562 -34 22.65625 -34 L 13.65625 -34 Z M 13.65625 -24.578125" transform="translate(211.703 266.152)"/></g></g></g><g fill="#352359"><g><g><path d="M 22.609375 -5.25 L 22.3125 -5.25 C 22.03125 -4.457031 21.660156 -3.703125 21.203125 -2.984375 C 20.742188 -2.265625 20.15625 -1.625 19.4375 -1.0625 C 18.726562 -0.507812 17.882812 -0.078125 16.90625 0.234375 C 15.9375 0.554688 14.8125 0.71875 13.53125 0.71875 C 10.3125 0.71875 7.875 -0.34375 6.21875 -2.46875 C 4.570312 -4.601562 3.75 -7.65625 3.75 -11.625 L 3.75 -31.3125 L 12.578125 -31.3125 L 12.578125 -12.40625 C 12.578125 -10.5 12.914062 -9.023438 13.59375 -7.984375 C 14.269531 -6.953125 15.425781 -6.4375 17.0625 -6.4375 C 17.738281 -6.4375 18.410156 -6.535156 19.078125 -6.734375 C 19.753906 -6.929688 20.351562 -7.21875 20.875 -7.59375 C 21.394531 -7.976562 21.8125 -8.445312 22.125 -9 C 22.445312 -9.5625 22.609375 -10.21875 22.609375 -10.96875 L 22.609375 -31.3125 L 31.4375 -31.3125 L 31.4375 0 L 22.609375 0 Z M 22.609375 -5.25" transform="translate(251.479 266.152)"/></g></g></g><g fill="#352359"><g><g><path d="M 14.734375 0.71875 C 11.710938 0.71875 9.164062 0.234375 7.09375 -0.734375 C 5.03125 -1.710938 3.179688 -3.097656 1.546875 -4.890625 L 6.734375 -10.140625 C 7.847656 -8.910156 9.082031 -7.9375 10.4375 -7.21875 C 11.789062 -6.5 13.320312 -6.140625 15.03125 -6.140625 C 16.78125 -6.140625 17.992188 -6.40625 18.671875 -6.9375 C 19.347656 -7.476562 19.6875 -8.207031 19.6875 -9.125 C 19.6875 -10.59375 18.628906 -11.46875 16.515625 -11.75 L 13.125 -12.171875 C 6.082031 -13.046875 2.5625 -16.265625 2.5625 -21.828125 C 2.5625 -23.335938 2.847656 -24.71875 3.421875 -25.96875 C 4.003906 -27.226562 4.820312 -28.300781 5.875 -29.1875 C 6.925781 -30.082031 8.195312 -30.78125 9.6875 -31.28125 C 11.175781 -31.78125 12.859375 -32.03125 14.734375 -32.03125 C 16.359375 -32.03125 17.796875 -31.921875 19.046875 -31.703125 C 20.304688 -31.484375 21.421875 -31.164062 22.390625 -30.75 C 23.367188 -30.332031 24.265625 -29.8125 25.078125 -29.1875 C 25.890625 -28.570312 26.695312 -27.890625 27.5 -27.140625 L 22.421875 -21.953125 C 21.429688 -22.941406 20.304688 -23.722656 19.046875 -24.296875 C 17.796875 -24.878906 16.515625 -25.171875 15.203125 -25.171875 C 13.691406 -25.171875 12.617188 -24.929688 11.984375 -24.453125 C 11.347656 -23.972656 11.03125 -23.335938 11.03125 -22.546875 C 11.03125 -21.710938 11.257812 -21.066406 11.71875 -20.609375 C 12.175781 -20.148438 13.039062 -19.820312 14.3125 -19.625 L 17.828125 -19.140625 C 24.710938 -18.222656 28.15625 -15.082031 28.15625 -9.71875 C 28.15625 -8.207031 27.832031 -6.816406 27.1875 -5.546875 C 26.550781 -4.273438 25.644531 -3.171875 24.46875 -2.234375 C 23.300781 -1.296875 21.890625 -0.566406 20.234375 -0.046875 C 18.585938 0.460938 16.753906 0.71875 14.734375 0.71875 Z M 14.734375 0.71875" transform="translate(287.02 266.152)"/></g></g></g><g clip-path="url(#b)"><g clip-path="url(#c)"><path fill="#6C21DC" d="M 128.921875 206.5625 L 245.921875 206.5625 L 245.921875 89.5625 L 128.921875 89.5625 Z M 128.921875 206.5625"/></g></g><g clip-path="url(#d)"><path fill="#FFF" d="M 149.367188 183.144531 L 168.402344 159.871094 L 168.402344 113.394531 L 149.28125 136.773438 Z M 149.367188 183.144531"/></g><g clip-path="url(#e)"><path fill="#C0BFF2" d="M 168.402344 113.394531 L 187.472656 136.667969 L 187.472656 183.144531 L 168.402344 159.765625 Z M 168.402344 113.394531"/></g><g clip-path="url(#f)"><path fill="#DBD5F4" d="M 187.558594 183.144531 L 206.59375 159.871094 L 206.59375 113.394531 L 187.472656 136.773438 Z M 187.558594 183.144531"/></g><g clip-path="url(#g)"><path fill="#A287EC" d="M 206.59375 113.394531 L 225.671875 136.667969 L 225.671875 183.144531 L 206.59375 159.765625 Z M 206.59375 113.394531"/></g><g mask="url(#h)"><g><g clip-path="url(#i)" transform="translate(111 71)"><g clip-path="url(#j)"><path fill="#6C21DC" d="M 156.046875 78.453125 C 156.046875 121.324219 121.292969 156.078125 78.421875 156.078125 C 35.550781 156.078125 0.796875 121.324219 0.796875 78.453125 C 0.796875 35.582031 35.550781 0.828125 78.421875 0.828125 C 121.292969 0.828125 156.046875 35.582031 156.046875 78.453125 Z M 156.046875 78.453125"/></g><path fill="#FFF" d="M 85.699219 107.410156 C 85.617188 107.410156 85.53125 107.410156 85.449219 107.402344 C 84.105469 107.285156 83.023438 106.253906 82.84375 104.917969 L 77.417969 64.671875 L 71.488281 85.605469 C 71.121094 86.90625 69.90625 87.78125 68.554688 87.699219 C 67.207031 87.621094 66.09375 86.621094 65.875 85.289062 L 64.195312 75.0625 L 57.4375 91.667969 C 56.988281 92.773438 55.902344 93.480469 54.707031 93.460938 C 53.515625 93.4375 52.460938 92.679688 52.058594 91.554688 L 46.65625 76.464844 L 44.089844 80.113281 C 43.546875 80.878906 42.671875 81.335938 41.730469 81.335938 L 25.660156 81.335938 C 24.070312 81.335938 22.78125 80.046875 22.78125 78.453125 C 22.78125 76.863281 24.070312 75.574219 25.660156 75.574219 L 40.234375 75.574219 L 45.136719 68.609375 C 45.753906 67.730469 46.8125 67.269531 47.878906 67.414062 C 48.945312 67.558594 49.84375 68.285156 50.203125 69.296875 L 54.941406 82.519531 L 62.714844 63.421875 C 63.203125 62.226562 64.421875 61.5 65.703125 61.644531 C 66.984375 61.789062 68.015625 62.765625 68.226562 64.039062 L 69.46875 71.605469 L 75.648438 49.773438 C 76.023438 48.460938 77.261719 47.585938 78.625 47.683594 C 79.988281 47.78125 81.09375 48.820312 81.277344 50.171875 L 86.839844 91.441406 L 93.566406 70.304688 C 93.960938 69.070312 95.125 68.246094 96.425781 68.296875 C 97.722656 68.351562 98.824219 69.257812 99.117188 70.523438 L 101.59375 81.144531 L 103.6875 77.125 C 104.183594 76.171875 105.167969 75.574219 106.242188 75.574219 L 124.511719 75.574219 C 126.101562 75.574219 127.390625 76.863281 127.390625 78.457031 C 127.390625 80.046875 126.101562 81.335938 124.511719 81.335938 L 107.992188 81.335938 L 103.113281 90.703125 C 102.554688 91.773438 101.394531 92.378906 100.195312 92.230469 C 99 92.078125 98.027344 91.199219 97.753906 90.023438 L 95.882812 82.023438 L 88.445312 105.40625 C 88.058594 106.605469 86.945312 107.410156 85.699219 107.410156 Z M 85.699219 107.410156"/></g></g></g><g fill="#352359"><g><g><path d="M 1.390625 -10.40625 L 5.671875 -10.40625 C 6.535156 -10.40625 7.210938 -10.160156 7.703125 -9.671875 C 8.191406 -9.179688 8.4375 -8.53125 8.4375 -7.71875 C 8.4375 -7.332031 8.378906 -7.003906 8.265625 -6.734375 C 8.160156 -6.460938 8.023438 -6.238281 7.859375 -6.0625 C 7.691406 -5.894531 7.503906 -5.769531 7.296875 -5.6875 C 7.097656 -5.601562 6.914062 -5.546875 6.75 -5.515625 L 6.75 -5.421875 C 6.9375 -5.410156 7.144531 -5.359375 7.375 -5.265625 C 7.613281 -5.179688 7.835938 -5.039062 8.046875 -4.84375 C 8.253906 -4.65625 8.429688 -4.410156 8.578125 -4.109375 C 8.722656 -3.804688 8.796875 -3.441406 8.796875 -3.015625 C 8.796875 -2.585938 8.726562 -2.1875 8.59375 -1.8125 C 8.457031 -1.445312 8.269531 -1.128906 8.03125 -0.859375 C 7.789062 -0.597656 7.503906 -0.390625 7.171875 -0.234375 C 6.847656 -0.078125 6.492188 0 6.109375 0 L 1.390625 0 Z M 2.640625 -1.109375 L 5.71875 -1.109375 C 6.257812 -1.109375 6.679688 -1.242188 6.984375 -1.515625 C 7.296875 -1.785156 7.453125 -2.1875 7.453125 -2.71875 L 7.453125 -3.21875 C 7.453125 -3.75 7.296875 -4.148438 6.984375 -4.421875 C 6.679688 -4.691406 6.257812 -4.828125 5.71875 -4.828125 L 2.640625 -4.828125 Z M 2.640625 -5.90625 L 5.515625 -5.90625 C 6.015625 -5.90625 6.398438 -6.023438 6.671875 -6.265625 C 6.953125 -6.515625 7.09375 -6.875 7.09375 -7.34375 L 7.09375 -7.859375 C 7.09375 -8.328125 6.953125 -8.679688 6.671875 -8.921875 C 6.398438 -9.171875 6.015625 -9.296875 5.515625 -9.296875 L 2.640625 -9.296875 Z M 2.640625 -5.90625" transform="translate(113.782 298.636)"/></g></g></g><g fill="#352359"><g><g><path d="M 6 -1.25 L 5.953125 -1.25 C 5.867188 -1.070312 5.769531 -0.894531 5.65625 -0.71875 C 5.539062 -0.550781 5.398438 -0.398438 5.234375 -0.265625 C 5.066406 -0.128906 4.863281 -0.0234375 4.625 0.046875 C 4.382812 0.128906 4.101562 0.171875 3.78125 0.171875 C 2.988281 0.171875 2.359375 -0.0820312 1.890625 -0.59375 C 1.421875 -1.101562 1.1875 -1.820312 1.1875 -2.75 L 1.1875 -7.6875 L 2.390625 -7.6875 L 2.390625 -2.96875 C 2.390625 -1.582031 2.972656 -0.890625 4.140625 -0.890625 C 4.378906 -0.890625 4.609375 -0.921875 4.828125 -0.984375 C 5.054688 -1.046875 5.253906 -1.132812 5.421875 -1.25 C 5.597656 -1.375 5.738281 -1.523438 5.84375 -1.703125 C 5.945312 -1.890625 6 -2.113281 6 -2.375 L 6 -7.6875 L 7.203125 -7.6875 L 7.203125 0 L 6 0 Z M 6 -1.25" transform="translate(124.676 298.636)"/></g></g></g><g fill="#352359"><g><g><path d="M 3.578125 0.171875 C 2.859375 0.171875 2.257812 0.0351562 1.78125 -0.234375 C 1.300781 -0.503906 0.882812 -0.867188 0.53125 -1.328125 L 1.390625 -2.015625 C 1.679688 -1.640625 2.007812 -1.347656 2.375 -1.140625 C 2.75 -0.929688 3.179688 -0.828125 3.671875 -0.828125 C 4.171875 -0.828125 4.5625 -0.9375 4.84375 -1.15625 C 5.132812 -1.375 5.28125 -1.6875 5.28125 -2.09375 C 5.28125 -2.382812 5.179688 -2.632812 4.984375 -2.84375 C 4.796875 -3.0625 4.445312 -3.210938 3.9375 -3.296875 L 3.328125 -3.390625 C 2.960938 -3.429688 2.628906 -3.503906 2.328125 -3.609375 C 2.035156 -3.710938 1.773438 -3.851562 1.546875 -4.03125 C 1.328125 -4.207031 1.15625 -4.421875 1.03125 -4.671875 C 0.90625 -4.929688 0.84375 -5.242188 0.84375 -5.609375 C 0.84375 -5.984375 0.910156 -6.3125 1.046875 -6.59375 C 1.191406 -6.875 1.382812 -7.109375 1.625 -7.296875 C 1.875 -7.492188 2.164062 -7.640625 2.5 -7.734375 C 2.84375 -7.828125 3.207031 -7.875 3.59375 -7.875 C 4.21875 -7.875 4.738281 -7.765625 5.15625 -7.546875 C 5.582031 -7.328125 5.957031 -7.023438 6.28125 -6.640625 L 5.484375 -5.921875 C 5.316406 -6.160156 5.066406 -6.375 4.734375 -6.5625 C 4.410156 -6.757812 4 -6.859375 3.5 -6.859375 C 3 -6.859375 2.625 -6.75 2.375 -6.53125 C 2.125 -6.320312 2 -6.035156 2 -5.671875 C 2 -5.285156 2.125 -5.007812 2.375 -4.84375 C 2.625 -4.675781 2.988281 -4.550781 3.46875 -4.46875 L 4.0625 -4.375 C 4.914062 -4.25 5.519531 -4.003906 5.875 -3.640625 C 6.238281 -3.273438 6.421875 -2.800781 6.421875 -2.21875 C 6.421875 -1.476562 6.164062 -0.894531 5.65625 -0.46875 C 5.15625 -0.0390625 4.460938 0.171875 3.578125 0.171875 Z M 3.578125 0.171875" transform="translate(134.304 298.636)"/></g></g></g><g fill="#352359"><g><g><path d="M 1.390625 -10.40625 L 4.875 -10.40625 C 5.519531 -10.40625 6.101562 -10.296875 6.625 -10.078125 C 7.15625 -9.859375 7.609375 -9.53125 7.984375 -9.09375 C 8.359375 -8.664062 8.644531 -8.125 8.84375 -7.46875 C 9.039062 -6.820312 9.140625 -6.066406 9.140625 -5.203125 C 9.140625 -4.335938 9.039062 -3.578125 8.84375 -2.921875 C 8.644531 -2.273438 8.359375 -1.734375 7.984375 -1.296875 C 7.609375 -0.867188 7.15625 -0.546875 6.625 -0.328125 C 6.101562 -0.109375 5.519531 0 4.875 0 L 1.390625 0 Z M 4.875 -1.109375 C 5.300781 -1.109375 5.691406 -1.175781 6.046875 -1.3125 C 6.410156 -1.457031 6.71875 -1.671875 6.96875 -1.953125 C 7.226562 -2.234375 7.429688 -2.570312 7.578125 -2.96875 C 7.722656 -3.375 7.796875 -3.835938 7.796875 -4.359375 L 7.796875 -6.046875 C 7.796875 -6.566406 7.722656 -7.023438 7.578125 -7.421875 C 7.429688 -7.828125 7.226562 -8.171875 6.96875 -8.453125 C 6.71875 -8.734375 6.410156 -8.941406 6.046875 -9.078125 C 5.691406 -9.222656 5.300781 -9.296875 4.875 -9.296875 L 2.640625 -9.296875 L 2.640625 -1.109375 Z M 4.875 -1.109375" transform="translate(147.404 298.636)"/></g></g></g><g fill="#352359"><g><g><path d="M 4.15625 0.171875 C 3.632812 0.171875 3.160156 0.078125 2.734375 -0.109375 C 2.316406 -0.296875 1.953125 -0.566406 1.640625 -0.921875 C 1.335938 -1.273438 1.101562 -1.695312 0.9375 -2.1875 C 0.78125 -2.675781 0.703125 -3.226562 0.703125 -3.84375 C 0.703125 -4.445312 0.78125 -5 0.9375 -5.5 C 1.101562 -6 1.335938 -6.421875 1.640625 -6.765625 C 1.953125 -7.117188 2.316406 -7.390625 2.734375 -7.578125 C 3.160156 -7.773438 3.632812 -7.875 4.15625 -7.875 C 4.675781 -7.875 5.140625 -7.773438 5.546875 -7.578125 C 5.953125 -7.390625 6.296875 -7.128906 6.578125 -6.796875 C 6.867188 -6.472656 7.09375 -6.082031 7.25 -5.625 C 7.40625 -5.164062 7.484375 -4.660156 7.484375 -4.109375 L 7.484375 -3.546875 L 1.953125 -3.546875 L 1.953125 -3.1875 C 1.953125 -2.863281 2.003906 -2.554688 2.109375 -2.265625 C 2.210938 -1.984375 2.359375 -1.738281 2.546875 -1.53125 C 2.742188 -1.320312 2.984375 -1.15625 3.265625 -1.03125 C 3.554688 -0.914062 3.878906 -0.859375 4.234375 -0.859375 C 4.722656 -0.859375 5.144531 -0.972656 5.5 -1.203125 C 5.863281 -1.429688 6.144531 -1.757812 6.34375 -2.1875 L 7.203125 -1.578125 C 6.953125 -1.054688 6.5625 -0.632812 6.03125 -0.3125 C 5.507812 0.0078125 4.882812 0.171875 4.15625 0.171875 Z M 4.15625 -6.875 C 3.832031 -6.875 3.535156 -6.816406 3.265625 -6.703125 C 2.992188 -6.585938 2.757812 -6.425781 2.5625 -6.21875 C 2.375 -6.007812 2.222656 -5.757812 2.109375 -5.46875 C 2.003906 -5.1875 1.953125 -4.878906 1.953125 -4.546875 L 1.953125 -4.4375 L 6.203125 -4.4375 L 6.203125 -4.609375 C 6.203125 -5.296875 6.015625 -5.84375 5.640625 -6.25 C 5.265625 -6.664062 4.769531 -6.875 4.15625 -6.875 Z M 4.15625 -6.875" transform="translate(158.566 298.636)"/></g></g></g><g fill="#352359"><g><g><path d="M 2.96875 0 C 2.550781 0 2.234375 -0.113281 2.015625 -0.34375 C 1.804688 -0.582031 1.703125 -0.890625 1.703125 -1.265625 L 1.703125 -6.640625 L 0.4375 -6.640625 L 0.4375 -7.6875 L 1.140625 -7.6875 C 1.398438 -7.6875 1.578125 -7.738281 1.671875 -7.84375 C 1.765625 -7.945312 1.8125 -8.128906 1.8125 -8.390625 L 1.8125 -9.828125 L 2.890625 -9.828125 L 2.890625 -7.6875 L 4.578125 -7.6875 L 4.578125 -6.640625 L 2.890625 -6.640625 L 2.890625 -1.046875 L 4.453125 -1.046875 L 4.453125 0 Z M 2.96875 0" transform="translate(167.91 298.636)"/></g></g></g><g fill="#352359"><g><g><path d="M 4.15625 0.171875 C 3.632812 0.171875 3.160156 0.078125 2.734375 -0.109375 C 2.316406 -0.296875 1.953125 -0.566406 1.640625 -0.921875 C 1.335938 -1.273438 1.101562 -1.695312 0.9375 -2.1875 C 0.78125 -2.675781 0.703125 -3.226562 0.703125 -3.84375 C 0.703125 -4.445312 0.78125 -5 0.9375 -5.5 C 1.101562 -6 1.335938 -6.421875 1.640625 -6.765625 C 1.953125 -7.117188 2.316406 -7.390625 2.734375 -7.578125 C 3.160156 -7.773438 3.632812 -7.875 4.15625 -7.875 C 4.675781 -7.875 5.140625 -7.773438 5.546875 -7.578125 C 5.953125 -7.390625 6.296875 -7.128906 6.578125 -6.796875 C 6.867188 -6.472656 7.09375 -6.082031 7.25 -5.625 C 7.40625 -5.164062 7.484375 -4.660156 7.484375 -4.109375 L 7.484375 -3.546875 L 1.953125 -3.546875 L 1.953125 -3.1875 C 1.953125 -2.863281 2.003906 -2.554688 2.109375 -2.265625 C 2.210938 -1.984375 2.359375 -1.738281 2.546875 -1.53125 C 2.742188 -1.320312 2.984375 -1.15625 3.265625 -1.03125 C 3.554688 -0.914062 3.878906 -0.859375 4.234375 -0.859375 C 4.722656 -0.859375 5.144531 -0.972656 5.5 -1.203125 C 5.863281 -1.429688 6.144531 -1.757812 6.34375 -2.1875 L 7.203125 -1.578125 C 6.953125 -1.054688 6.5625 -0.632812 6.03125 -0.3125 C 5.507812 0.0078125 4.882812 0.171875 4.15625 0.171875 Z M 4.15625 -6.875 C 3.832031 -6.875 3.535156 -6.816406 3.265625 -6.703125 C 2.992188 -6.585938 2.757812 -6.425781 2.5625 -6.21875 C 2.375 -6.007812 2.222656 -5.757812 2.109375 -5.46875 C 2.003906 -5.1875 1.953125 -4.878906 1.953125 -4.546875 L 1.953125 -4.4375 L 6.203125 -4.4375 L 6.203125 -4.609375 C 6.203125 -5.296875 6.015625 -5.84375 5.640625 -6.25 C 5.265625 -6.664062 4.769531 -6.875 4.15625 -6.875 Z M 4.15625 -6.875" transform="translate(174.304 298.636)"/></g></g></g><g fill="#352359"><g><g><path d="M 4.125 0.171875 C 3.59375 0.171875 3.113281 0.078125 2.6875 -0.109375 C 2.257812 -0.296875 1.894531 -0.5625 1.59375 -0.90625 C 1.300781 -1.257812 1.078125 -1.679688 0.921875 -2.171875 C 0.773438 -2.671875 0.703125 -3.226562 0.703125 -3.84375 C 0.703125 -4.457031 0.773438 -5.015625 0.921875 -5.515625 C 1.078125 -6.015625 1.300781 -6.4375 1.59375 -6.78125 C 1.894531 -7.125 2.257812 -7.390625 2.6875 -7.578125 C 3.113281 -7.773438 3.59375 -7.875 4.125 -7.875 C 4.894531 -7.875 5.507812 -7.707031 5.96875 -7.375 C 6.425781 -7.039062 6.769531 -6.601562 7 -6.0625 L 6 -5.5625 C 5.863281 -5.957031 5.632812 -6.265625 5.3125 -6.484375 C 5 -6.703125 4.601562 -6.8125 4.125 -6.8125 C 3.769531 -6.8125 3.457031 -6.753906 3.1875 -6.640625 C 2.914062 -6.523438 2.691406 -6.363281 2.515625 -6.15625 C 2.335938 -5.957031 2.203125 -5.71875 2.109375 -5.4375 C 2.023438 -5.15625 1.984375 -4.84375 1.984375 -4.5 L 1.984375 -3.1875 C 1.984375 -2.507812 2.164062 -1.953125 2.53125 -1.515625 C 2.894531 -1.085938 3.425781 -0.875 4.125 -0.875 C 5.09375 -0.875 5.789062 -1.320312 6.21875 -2.21875 L 7.078125 -1.640625 C 6.828125 -1.085938 6.457031 -0.644531 5.96875 -0.3125 C 5.476562 0.0078125 4.863281 0.171875 4.125 0.171875 Z M 4.125 0.171875" transform="translate(183.648 298.636)"/></g></g></g><g fill="#352359"><g><g><path d="M 2.96875 0 C 2.550781 0 2.234375 -0.113281 2.015625 -0.34375 C 1.804688 -0.582031 1.703125 -0.890625 1.703125 -1.265625 L 1.703125 -6.640625 L 0.4375 -6.640625 L 0.4375 -7.6875 L 1.140625 -7.6875 C 1.398438 -7.6875 1.578125 -7.738281 1.671875 -7.84375 C 1.765625 -7.945312 1.8125 -8.128906 1.8125 -8.390625 L 1.8125 -9.828125 L 2.890625 -9.828125 L 2.890625 -7.6875 L 4.578125 -7.6875 L 4.578125 -6.640625 L 2.890625 -6.640625 L 2.890625 -1.046875 L 4.453125 -1.046875 L 4.453125 0 Z M 2.96875 0" transform="translate(192.307 298.636)"/></g></g></g><g fill="#352359"><g><g><path d="M 1.859375 -9.5 C 1.597656 -9.5 1.410156 -9.5625 1.296875 -9.6875 C 1.191406 -9.8125 1.140625 -9.972656 1.140625 -10.171875 L 1.140625 -10.359375 C 1.140625 -10.554688 1.191406 -10.71875 1.296875 -10.84375 C 1.410156 -10.96875 1.597656 -11.03125 1.859375 -11.03125 C 2.117188 -11.03125 2.304688 -10.96875 2.421875 -10.84375 C 2.535156 -10.71875 2.59375 -10.554688 2.59375 -10.359375 L 2.59375 -10.171875 C 2.59375 -9.972656 2.535156 -9.8125 2.421875 -9.6875 C 2.304688 -9.5625 2.117188 -9.5 1.859375 -9.5 Z M 1.265625 -7.6875 L 2.453125 -7.6875 L 2.453125 0 L 1.265625 0 Z M 1.265625 -7.6875" transform="translate(198.7 298.636)"/></g></g></g><g fill="#352359"><g><g><path d="M 4.171875 0.171875 C 3.660156 0.171875 3.1875 0.078125 2.75 -0.109375 C 2.320312 -0.296875 1.957031 -0.566406 1.65625 -0.921875 C 1.351562 -1.273438 1.117188 -1.695312 0.953125 -2.1875 C 0.785156 -2.675781 0.703125 -3.226562 0.703125 -3.84375 C 0.703125 -4.445312 0.785156 -5 0.953125 -5.5 C 1.117188 -6 1.351562 -6.421875 1.65625 -6.765625 C 1.957031 -7.117188 2.320312 -7.390625 2.75 -7.578125 C 3.1875 -7.773438 3.660156 -7.875 4.171875 -7.875 C 4.691406 -7.875 5.160156 -7.773438 5.578125 -7.578125 C 6.003906 -7.390625 6.367188 -7.117188 6.671875 -6.765625 C 6.984375 -6.421875 7.222656 -6 7.390625 -5.5 C 7.554688 -5 7.640625 -4.445312 7.640625 -3.84375 C 7.640625 -3.226562 7.554688 -2.675781 7.390625 -2.1875 C 7.222656 -1.695312 6.984375 -1.273438 6.671875 -0.921875 C 6.367188 -0.566406 6.003906 -0.296875 5.578125 -0.109375 C 5.160156 0.078125 4.691406 0.171875 4.171875 0.171875 Z M 4.171875 -0.875 C 4.816406 -0.875 5.34375 -1.070312 5.75 -1.46875 C 6.15625 -1.875 6.359375 -2.484375 6.359375 -3.296875 L 6.359375 -4.390625 C 6.359375 -5.210938 6.15625 -5.820312 5.75 -6.21875 C 5.34375 -6.613281 4.816406 -6.8125 4.171875 -6.8125 C 3.523438 -6.8125 3 -6.613281 2.59375 -6.21875 C 2.1875 -5.820312 1.984375 -5.210938 1.984375 -4.390625 L 1.984375 -3.296875 C 1.984375 -2.484375 2.1875 -1.875 2.59375 -1.46875 C 3 -1.070312 3.523438 -0.875 4.171875 -0.875 Z M 4.171875 -0.875" transform="translate(203.589 298.636)"/></g></g></g><g fill="#352359"><g><g><path d="M 1.265625 0 L 1.265625 -7.6875 L 2.453125 -7.6875 L 2.453125 -6.4375 L 2.515625 -6.4375 C 2.703125 -6.875 2.96875 -7.222656 3.3125 -7.484375 C 3.65625 -7.742188 4.117188 -7.875 4.703125 -7.875 C 5.492188 -7.875 6.117188 -7.613281 6.578125 -7.09375 C 7.046875 -6.582031 7.28125 -5.863281 7.28125 -4.9375 L 7.28125 0 L 6.078125 0 L 6.078125 -4.71875 C 6.078125 -6.101562 5.5 -6.796875 4.34375 -6.796875 C 4.101562 -6.796875 3.867188 -6.765625 3.640625 -6.703125 C 3.421875 -6.648438 3.21875 -6.5625 3.03125 -6.4375 C 2.851562 -6.320312 2.710938 -6.171875 2.609375 -5.984375 C 2.503906 -5.796875 2.453125 -5.582031 2.453125 -5.34375 L 2.453125 0 Z M 1.265625 0" transform="translate(213.097 298.636)"/></g></g></g><g fill="#352359"><g><g><path d="M 7.90625 0 L 6.859375 -3.078125 L 2.65625 -3.078125 L 1.609375 0 L 0.34375 0 L 3.984375 -10.40625 L 5.578125 -10.40625 L 9.21875 0 Z M 4.78125 -9.234375 L 4.703125 -9.234375 L 2.953125 -4.171875 L 6.546875 -4.171875 Z M 4.78125 -9.234375" transform="translate(227.394 298.636)"/></g></g></g><g fill="#352359"><g><g><path d="M 1.265625 -7.6875 L 2.453125 -7.6875 L 2.453125 -6.4375 L 2.515625 -6.4375 C 2.710938 -6.925781 3.003906 -7.285156 3.390625 -7.515625 C 3.773438 -7.753906 4.234375 -7.875 4.765625 -7.875 C 5.242188 -7.875 5.675781 -7.773438 6.0625 -7.578125 C 6.445312 -7.390625 6.773438 -7.125 7.046875 -6.78125 C 7.328125 -6.4375 7.539062 -6.015625 7.6875 -5.515625 C 7.832031 -5.015625 7.90625 -4.457031 7.90625 -3.84375 C 7.90625 -3.226562 7.832031 -2.671875 7.6875 -2.171875 C 7.539062 -1.679688 7.328125 -1.257812 7.046875 -0.90625 C 6.773438 -0.5625 6.445312 -0.296875 6.0625 -0.109375 C 5.675781 0.078125 5.242188 0.171875 4.765625 0.171875 C 3.722656 0.171875 2.972656 -0.300781 2.515625 -1.25 L 2.453125 -1.25 L 2.453125 2.984375 L 1.265625 2.984375 Z M 4.4375 -0.890625 C 5.113281 -0.890625 5.644531 -1.097656 6.03125 -1.515625 C 6.425781 -1.941406 6.625 -2.5 6.625 -3.1875 L 6.625 -4.5 C 6.625 -5.1875 6.425781 -5.738281 6.03125 -6.15625 C 5.644531 -6.582031 5.113281 -6.796875 4.4375 -6.796875 C 4.175781 -6.796875 3.921875 -6.757812 3.671875 -6.6875 C 3.429688 -6.613281 3.21875 -6.507812 3.03125 -6.375 C 2.851562 -6.25 2.710938 -6.09375 2.609375 -5.90625 C 2.503906 -5.726562 2.453125 -5.535156 2.453125 -5.328125 L 2.453125 -2.453125 C 2.453125 -2.210938 2.503906 -1.992188 2.609375 -1.796875 C 2.710938 -1.597656 2.851562 -1.429688 3.03125 -1.296875 C 3.21875 -1.171875 3.429688 -1.070312 3.671875 -1 C 3.921875 -0.925781 4.175781 -0.890625 4.4375 -0.890625 Z M 4.4375 -0.890625" transform="translate(238.11 298.636)"/></g></g></g><g fill="#352359"><g><g><path d="M 1.265625 -7.6875 L 2.453125 -7.6875 L 2.453125 -6.4375 L 2.515625 -6.4375 C 2.710938 -6.925781 3.003906 -7.285156 3.390625 -7.515625 C 3.773438 -7.753906 4.234375 -7.875 4.765625 -7.875 C 5.242188 -7.875 5.675781 -7.773438 6.0625 -7.578125 C 6.445312 -7.390625 6.773438 -7.125 7.046875 -6.78125 C 7.328125 -6.4375 7.539062 -6.015625 7.6875 -5.515625 C 7.832031 -5.015625 7.90625 -4.457031 7.90625 -3.84375 C 7.90625 -3.226562 7.832031 -2.671875 7.6875 -2.171875 C 7.539062 -1.679688 7.328125 -1.257812 7.046875 -0.90625 C 6.773438 -0.5625 6.445312 -0.296875 6.0625 -0.109375 C 5.675781 0.078125 5.242188 0.171875 4.765625 0.171875 C 3.722656 0.171875 2.972656 -0.300781 2.515625 -1.25 L 2.453125 -1.25 L 2.453125 2.984375 L 1.265625 2.984375 Z M 4.4375 -0.890625 C 5.113281 -0.890625 5.644531 -1.097656 6.03125 -1.515625 C 6.425781 -1.941406 6.625 -2.5 6.625 -3.1875 L 6.625 -4.5 C 6.625 -5.1875 6.425781 -5.738281 6.03125 -6.15625 C 5.644531 -6.582031 5.113281 -6.796875 4.4375 -6.796875 C 4.175781 -6.796875 3.921875 -6.757812 3.671875 -6.6875 C 3.429688 -6.613281 3.21875 -6.507812 3.03125 -6.375 C 2.851562 -6.25 2.710938 -6.09375 2.609375 -5.90625 C 2.503906 -5.726562 2.453125 -5.535156 2.453125 -5.328125 L 2.453125 -2.453125 C 2.453125 -2.210938 2.503906 -1.992188 2.609375 -1.796875 C 2.710938 -1.597656 2.851562 -1.429688 3.03125 -1.296875 C 3.21875 -1.171875 3.429688 -1.070312 3.671875 -1 C 3.921875 -0.925781 4.175781 -0.890625 4.4375 -0.890625 Z M 4.4375 -0.890625" transform="translate(247.915 298.636)"/></g></g></g></svg>